PathFileType	4	(X/Y/Z)	C:\Users\°ÂÌØÂü\Desktop\20210112\bx_n_5_902-Unnamed.trc
DataRate	CameraRate	NumFrames	NumMarkers	Units	OrigDataRate	OrigDataStartFrame	OrigNumFrames
50.00	50.00	       8	0	mm	50.00	341	       545
Frame#	Time	
		

341	6.800	-724.53992	158.46187	222.46625	-819.56458	140.50986	563.47577	-899.28772	278.80664	860.26178	-364.29932	257.60178	948.77557	-794.87360	223.82069	973.83508	-869.80127	275.55469	724.84497	-868.48688	250.90054	621.16388	-938.90869	78.64519	1098.28906	-850.66443	246.74136	558.42224	-773.53613	8.81243	523.72620	-787.73114	202.40085	534.46625	-866.66528	260.30490	479.08630	-796.09753	32.37989	172.34541				-647.28833	-66.98457	161.73795	-780.04877	-13.31615	799.52032	-773.91766	232.53786	201.29297	-604.94446	-72.10110	157.02362	-882.48688	296.20758	144.78180	-819.95422	64.61404	563.40686	-601.12653	30.41360	165.89777	-548.94489	-20.48907	162.80463	-518.24591	-72.90160	143.02428	-678.09711	174.85805	163.14415	-594.50647	215.83939	173.11360	-622.35779	304.38562	159.01419	-528.20837	304.12186	146.31479	-115.98572	119.50497	1051.85449	-675.83807	51.99757	162.90530	-867.13177	-86.60872	854.25323	-800.61066	185.14697	179.88980	-557.91571	251.26045	164.08685	-658.97504	297.04224	158.21822							-848.63635	-57.22686	466.35220	-763.42834	-26.41040	202.01018	-875.99390	-78.57339	141.06145				-858.50671	-77.48219	740.25391	-837.84399	-45.93443	604.47314	-832.95795	-43.79874	555.13849	
342	6.820	-724.63293	158.62675	222.44618	-819.31207	140.93703	563.57990	-899.36761	279.31329	860.11639	-364.12701	257.49649	950.00720	-794.87360	223.82069	973.83508	-869.59369	276.14539	725.04395	-868.42194	250.93527	621.36353	-939.14154	78.96222	1098.04773	-850.41693	246.85025	558.19879	-773.43390	9.18317	523.91809	-787.81122	202.87535	534.09497	-866.49957	260.43152	478.84064	-796.05817	32.38697	172.15007	-730.54315	64.03799	220.00555	-647.30353	-67.15861	161.82254				-774.00775	232.56685	201.17361	-604.94885	-72.15518	157.09456	-882.64111	296.18625	144.72813	-819.95422	64.61404	563.40686	-601.21252	30.25919	165.88071	-548.90051	-20.49276	162.86658	-518.24756	-72.79452	143.12039	-678.12592	174.91068	163.05553	-594.65857	215.71100	173.02332	-622.31915	304.52908	159.15451	-528.21936	303.75247	146.20018	-116.46928	119.32684	1052.69995				-867.06696	-86.49327	854.42426	-800.85217	185.15001	180.09573	-557.91571	251.26045	164.08685	-658.93109	296.76895	158.01782							-848.45245	-57.05795	466.40436	-763.45874	-26.33552	201.76938	-876.05377	-78.45598	140.89658				-858.61957	-77.18340	740.29468	-837.75061	-45.70962	604.51831	-832.93188	-43.57326	555.06128	
343	6.840	-724.53992	158.46187	222.46625	-819.04230	141.14470	563.64294	-899.23975	279.43530	859.95032	-364.19882	257.30878	950.64288	-794.86731	223.95605	973.78412	-869.41577	275.79398	724.82123	-868.35315	250.94221	621.23120	-939.50342	79.36575	1098.03406	-850.53802	246.85855	558.01178	-773.46735	9.16805	523.72253	-787.66595	203.11879	533.94653	-866.60425	260.37976	478.58804	-796.04926	32.66579	172.32010	-730.41949	64.10368	219.81236	-647.27094	-67.08572	161.72704	-783.95099	212.05708	788.08899	-774.00775	232.56685	201.17361	-604.95007	-72.16772	157.19504	-882.45593	296.22400	144.77756	-819.84326	65.10298	563.01025	-601.14178	30.32983	165.80592	-548.83813	-20.50761	162.90341	-518.20367	-72.73705	142.99728	-677.95477	174.78404	163.30310	-594.38745	216.12468	173.41141	-622.29211	304.32770	159.10471	-528.06122	304.07721	146.41940	-116.27163	119.22099	1054.12476	-675.83807	51.99757	162.90530	-867.14795	-86.45789	854.35199	-800.59949	185.07980	179.81734	-558.07001	251.28662	164.12204	-659.01666	296.96460	157.89178	-780.29547	-12.71236	799.95923				-848.56818	-57.59743	466.84290	-763.55243	-26.07332	201.68805	-876.02399	-78.40623	140.96947				-858.67523	-76.93115	740.01880	-838.00043	-45.47970	604.41565	-832.91168	-43.38346	555.17590	
344	6.860	-724.63293	158.62675	222.44618	-819.04407	141.36470	563.51166	-899.32733	279.55801	859.91663	-364.31012	257.05405	951.18817	-794.91125	224.43311	974.02502	-869.62097	276.05051	724.75409	-868.68774	251.33318	621.10620	-939.88940	79.36951	1097.74976	-850.79083	247.09903	558.20374	-773.49323	9.37544	523.76056	-787.72198	203.23012	534.10999	-866.77277	260.88687	478.81729	-796.22040	32.99009	172.12814	-730.54315	64.03799	220.00555	-647.22235	-66.94563	161.65401	-784.25104	211.92220	787.42291	-774.26355	232.48755	201.22627	-604.95660	-72.24042	157.20636	-882.40680	296.07779	144.65472	-819.84326	65.10298	563.01025	-601.16022	30.42512	165.99834	-548.90051	-20.49276	162.86658	-518.20532	-72.62995	143.09338	-677.95477	174.78404	163.30310	-594.44135	215.96712	173.02930	-622.16754	304.38339	159.00420	-528.12482	304.08368	146.39049	-116.60404	119.06564	1055.28625	-675.86053	52.23779	162.93452	-867.62256	-86.20081	854.39502	-800.63947	185.08369	179.75665	-558.14185	251.31296	164.15160	-659.06219	297.01093	158.02899	-780.45117	-12.67831	799.44958				-848.89545	-56.78136	466.22852	-763.55243	-26.07332	201.68805	-875.91925	-78.60236	141.09167				-858.94757	-76.80846	740.12134	-838.24780	-45.17191	604.16150	-832.98956	-43.40035	554.99017	
345	6.880	-724.73230	158.26503	222.31033	-819.20874	141.71054	563.10364	-899.32733	279.55801	859.91663				-794.99414	224.88103	974.22852	-870.24274	276.39752	724.44379	-868.86029	251.44864	620.94135	-940.05365	79.47646	1097.72144	-850.86206	247.14134	558.00775	-773.58624	9.35052	523.63666	-788.19250	203.16016	533.99188	-866.87439	261.07773	478.77457	-795.73871	33.03416	171.79771	-730.54315	64.03799	220.00555	-647.28833	-66.98457	161.73795	-784.34753	212.63618	787.18872	-774.18408	232.38634	201.11403	-604.95660	-72.24042	157.20636	-882.65778	296.13382	144.58998	-819.94366	65.11839	562.88055	-601.18378	30.18758	165.98160	-548.90051	-20.49276	162.86658	-518.20367	-72.73705	142.99728	-677.87842	174.53448	163.12218	-594.43396	215.98738	173.31494	-622.39313	304.60040	159.04771	-528.24084	304.13599	146.31870	-116.78256	119.12437	1057.66199				-868.03229	-85.85982	854.16766	-800.71234	185.03333	179.62750	-558.14185	251.31296	164.15160	-659.01666	296.96460	157.89178	-780.71655	-12.56390	799.05206				-849.53296	-56.70454	465.96545	-763.67511	-25.88451	201.57233	-875.97729	-78.46404	140.94899				-859.53070	-76.37810	739.79932	-838.59052	-45.09707	604.02075	-833.40277	-42.89928	554.49316	
346	6.900	-724.58759	158.36818	222.36366	-819.54272	141.68527	563.10962	-899.65552	280.01959	859.79938				-795.41498	224.74107	974.18097	-870.71777	276.90146	724.64392	-869.13800	251.60121	620.76514	-940.53473	79.70109	1097.72449	-850.84882	247.42151	557.97900	-774.16107	9.44583	523.27960	-788.44763	203.23059	533.72839	-867.13623	261.45291	478.54465	-796.25122	33.08985	172.17320	-730.54315	64.03799	220.00555	-647.44324	-67.08402	161.49222	-784.81958	212.77817	787.10986	-774.25623	232.37553	200.97054	-604.83795	-72.42003	157.35838	-882.53406	296.09598	144.57982	-820.01495	65.24203	562.74225	-601.24048	30.30154	165.96155	-548.97339	-20.60086	162.87640	-518.15631	-72.75182	142.92839	-677.95477	174.78404	163.30310	-594.46790	216.09404	173.30843	-622.38263	304.47525	158.92572	-528.17462	303.91663	146.31383	-117.15917	119.08028	1059.54321				-868.66656	-85.65142	854.16943	-800.61993	185.04631	179.75032	-558.25397	251.46771	163.99507	-659.06219	297.01093	158.02899	-781.17426	-12.97812	799.70880				-849.64789	-56.66041	465.75827	-763.70050	-25.94479	201.51477	-875.96667	-78.41602	140.99751				-860.08759	-76.44003	739.79993	-838.95526	-45.00149	603.96753	-833.91022	-43.07432	554.86664	
347	6.920	-724.53992	158.46187	222.46625	-819.48224	142.02693	562.91370	-899.84619	280.33868	859.55640				-795.58618	225.24153	974.51874	-870.53638	277.22537	724.42542	-869.19867	251.63455	620.55042	-941.23724	80.00324	1097.48181	-851.11353	247.58623	557.98755	-774.20355	9.21830	523.23743	-788.58221	203.39140	533.62433	-867.05969	261.57413	478.18527	-795.84827	33.09136	171.61327	-731.04846	63.93639	219.84329	-647.42780	-67.14585	161.68350	-784.81958	212.77817	787.10986	-774.25623	232.37553	200.97054	-605.09686	-72.17653	157.27632	-882.50659	296.28424	144.83293	-820.69666	65.56230	562.47290	-601.25012	29.97206	165.99966	-549.03949	-20.47268	162.75479	-518.21625	-72.54301	143.17493	-677.92664	174.66814	163.11945	-594.62317	216.07350	173.33780	-622.22400	304.58771	159.14729	-528.15265	304.00107	146.42075	-117.72233	118.86510	1062.45239				-868.97052	-85.13955	854.20679	-800.69281	184.99594	179.62119	-558.22009	251.35620	164.10281	-658.98279	296.86703	157.97562	-781.55402	-12.58615	799.57025				-849.70685	-57.16699	466.35809	-763.63690	-26.04804	201.76717	-875.97729	-78.46404	140.94899				-860.22418	-76.40156	739.64899	-839.24451	-44.82402	603.84003	-834.24030	-42.88255	554.68359	
348	6.940	-724.79761	158.50972	222.38458	-820.15613	142.20967	563.13281	-900.07709	280.53760	859.44989				-795.97363	225.56367	975.03796	-870.44617	277.21039	724.31226	-869.23907	252.11020	620.67621	-941.70685	80.51508	1096.97424	-851.01306	247.73523	558.12634	-774.46277	9.38682	523.13464	-788.58221	203.39140	533.62433	-866.95221	261.66418	477.97354	-796.45538	33.12445	172.15921	-730.41949	64.10368	219.81236	-647.57269	-66.98281	161.46835	-785.31366	212.56477	786.57800	-774.25623	232.37553	200.97054	-605.02942	-72.27579	157.29163	-882.59625	296.22037	144.63243	-820.95782	65.40936	562.39545	-601.28113	30.04750	166.04683	-548.90051	-20.49276	162.86658	-518.13959	-72.41422	143.07460	-677.92664	174.66814	163.11945	-594.53119	216.13399	173.25656	-622.49493	304.74402	159.21515	-528.15265	304.00107	146.42075	-117.74387	118.98785	1065.41638				-869.29993	-85.13094	854.40948	-800.72382	185.20764	179.37163	-558.19415	251.37090	164.17274	-659.06219	297.01093	158.02899							-850.24994	-57.25314	466.18372	-764.10736	-25.84511	201.47087	-875.95447	-78.47334	140.95030				-860.41541	-75.88308	739.52826	-839.58191	-44.91011	603.92316	-834.45105	-42.96763	554.86621	
